# xmcd CD database file
#
# Track frame offsets:
#	150
#	53355
#	89039
#	112415
#
# Disc length: 2318 seconds
#
# Revision: 8
# Processed by: cddbd v1.5.2PL0 Copyright (c) Steve Scherf et al.
# Submitted via: CDex 2.22
#
DISCID=32090c04
DTITLE=芸能山城組 - 輪廻交響楽_ Ecophony Rinne
DYEAR=1986
DGENRE=New Age
TTITLE0=第 1 章_ 翠 生
TTITLE1=第 2 章_ 散 華
TTITLE2=第 3 章_ 瞑 想
TTITLE3=第 4 章_ 転 生
EXTD=YEAR: 1986
EXTT0=
EXTT1=
EXTT2=
EXTT3=
PLAYORDER=
